:FULLY-SPECIFIED
:FORCE-ALL-JOINTS-BE-3DOF
:DEGREES
985
root 1.1123 15.1535 32.4977 5.75145 -5.24081 364.189
lfemur 8.8555 2.41992 5.19362
ltibia -0.00335486 0 0
lfoot -30.0823 -12.031 0
ltoes -33.5813 0 0
rfemur -33.7477 -16.0855 -6.06191
rtibia 51.3176 0 0
rfoot -22.9478 5.97335 0
rtoes -41.562 0 0
lowerback -1.57104 -0.4541 0.723409
upperback -0.913621 -0.61992 -6.00098
thorax -0.134873 -0.334317 -6.64704
lowerneck -6.49197 1.23289 5.79365
upperneck 0.612939 1.10263 3.37786
head 1.29319 0.637065 0.113583
lclavicle 7.72131e-15 2.48464e-14 0
lhumerus -58.2927 -44.3797 114.512
lradius 54.863 0 0
lwrist 24.9704 0 0
lhand 37.4123 24.6906 0
lfingers 7.12502 0 0
lthumb 60.2179 38.242 0
rclavicle 7.72131e-15 2.48464e-14 0
rhumerus 4.17305 -25.4807 0.509609
rradius 28.2373 0 0
rwrist -11.9609 0 0
rhand -31.7027 -45.7457 0
rfingers 7.12502 0 0
rthumb -4.96172 -795.669 0
986
root 1.11614 15.1548 32.4912 5.61733 -5.06554 364.162
lfemur 8.81406 2.21184 5.18513
ltibia -0.00157388 0 0
lfoot -30.0879 -11.9312 0
ltoes -33.6733 0 0
rfemur -33.4683 -15.9421 -6.11797
rtibia 51.1153 0 0
rfoot -22.8712 5.67372 0
rtoes -41.7616 0 0
lowerback -1.5492 -0.427216 0.708251
upperback -0.857878 -0.581128 -5.96086
thorax -0.0842845 -0.312504 -6.595
lowerneck -6.57659 1.21287 5.79887
upperneck 0.785803 1.06114 3.37193
head 1.36341 0.622877 0.11048
lclavicle 1.98029e-15 1.76632e-14 0
lhumerus -58.2859 -44.593 114.608
lradius 54.9142 0 0
lwrist 24.9702 0 0
lhand 37.3678 24.6014 0
lfingers 7.12502 0 0
lthumb 60.1798 38.192 0
rclavicle 1.98029e-15 1.76632e-14 0
rhumerus 4.0506 -25.3043 0.306193
rradius 28.1619 0 0
rwrist -11.7363 0 0
rhand -31.6487 -45.3893 0
rfingers 7.12502 0 0
rthumb -4.90949 -795.313 0
987
root 1.11997 15.156 32.4846 5.45745 -4.86547 364.129
lfemur 8.77071 1.97173 5.17945
ltibia -0.00041418 0 0
lfoot -30.0989 -11.8067 0
ltoes -33.7874 0 0
rfemur -33.1471 -15.7763 -6.1788
rtibia 50.8852 0 0
rfoot -22.7884 5.32795 0
rtoes -41.9931 0 0
lowerback -1.52156 -0.395776 0.690382
upperback -0.791136 -0.535745 -5.91163
thorax -0.0246698 -0.28694 -6.53157
lowerneck -6.67554 1.19133 5.80908
upperneck 0.986805 1.0148 3.36534
head 1.4452 0.607372 0.106341
lclavicle -4.64888e-15 9.40292e-15 0
lhumerus -58.2765 -44.845 114.727
lradius 54.973 0 0
lwrist 24.9696 0 0
lhand 37.3083 24.4979 0
lfingers 7.12502 0 0
lthumb 60.1288 38.1419 0
rclavicle -4.64888e-15 9.40292e-15 0
rhumerus 3.9085 -25.0717 0.0773527
rradius 28.0714 0 0
rwrist -11.4625 0 0
rhand -31.5641 -44.9607 0
rfingers 7.12502 0 0
rthumb -4.82786 -794.886 0
988
root 1.1238 15.1573 32.4781 5.2697 -4.63928 364.088
lfemur 8.7258 1.6976 5.17712
ltibia 1.90833e-14 0 0
lfoot -30.1159 -11.6552 0
ltoes -33.9256 0 0
rfemur -32.7814 -15.5868 -6.24436
rtibia 50.6256 0 0
rfoot -22.6997 4.93313 0
rtoes -42.2585 0 0
lowerback -1.48754 -0.359459 0.669615
upperback -0.712469 -0.483304 -5.85243
thorax 0.0446671 -0.257355 -6.4557
lowerneck -6.78983 1.16834 5.82499
upperneck 1.21788 0.963487 3.35806
head 1.53935 0.590558 0.101043
lclavicle -1.22253e-14 0 0
lhumerus -58.2643 -45.1387 114.869
lradius 55.0398 0 0
lwrist 24.9687 0 0
lhand 37.2319 24.379 0
lfingers 7.12502 0 0
lthumb 60.0636 38.0924 0
rclavicle -1.22253e-14 0 0
rhumerus 3.74548 -24.7764 -0.17803
rradius 27.9644 0 0
rwrist -11.1351 0 0
rhand -31.4451 -44.4536 0
rfingers 7.12502 0 0
rthumb -4.71295 -794.381 0
989
root 1.12471 15.1576 32.4753 5.2435 -4.5997 364.077
lfemur 8.71573 1.6523 5.18364
ltibia 1.74528e-14 0 0
lfoot -30.1177 -11.6289 0
ltoes -33.9463 0 0
rfemur -32.7264 -15.5695 -6.24791
rtibia 50.5896 0 0
rfoot -22.6897 4.87887 0
rtoes -42.3026 0 0
lowerback -1.48061 -0.353351 0.664009
upperback -0.701826 -0.474631 -5.84556
thorax 0.0529151 -0.252576 -6.445
lowerneck -6.80862 1.16351 5.82942
upperneck 1.24857 0.953711 3.36004
head 1.55249 0.58698 0.10078
lclavicle -1.28955e-14 -1.36893e-15 0
lhumerus -58.2702 -45.1896 114.895
lradius 55.0551 0 0
lwrist 24.9704 0 0
lhand 37.2209 24.3691 0
lfingers 7.12502 0 0
lthumb 60.0542 38.0926 0
rclavicle -1.28955e-14 -1.36893e-15 0
rhumerus 3.71649 -24.7305 -0.202011
rradius 27.9496 0 0
rwrist -11.094 0 0
rhand -31.4229 -44.3816 0
rfingers 7.12502 0 0
rthumb -4.69149 -794.309 0
990
root 1.12562 15.158 32.4725 5.2247 -4.57397 364.071
lfemur 8.70913 1.62215 5.18608
ltibia 1.64864e-14 0 0
lfoot -30.119 -11.6112 0
ltoes -33.9608 0 0
rfemur -32.6886 -15.5538 -6.25193
rtibia 50.5633 0 0
rfoot -22.6832 4.83661 0
rtoes -42.3361 0 0
lowerback -1.47552 -0.349559 0.661577
upperback -0.69418 -0.469229 -5.8397
thorax 0.0586918 -0.249561 -6.43726
lowerneck -6.82157 1.16083 5.83102
upperneck 1.27104 0.947949 3.36048
head 1.56197 0.585008 0.100595
lclavicle -1.35258e-14 -2.46999e-15 0
lhumerus -58.2724 -45.2229 114.912
lradius 55.0641 0 0
lwrist 24.9707 0 0
lhand 37.2122 24.3588 0
lfingers 7.12502 0 0
lthumb 60.0468 38.0901 0
rclavicle -1.35258e-14 -2.46999e-15 0
rhumerus 3.69812 -24.6985 -0.22299
rradius 27.9396 0 0
rwrist -11.065 0 0
rhand -31.4088 -44.3315 0
rfingers 7.12502 0 0
rthumb -4.67789 -794.26 0
991
root 1.12653 15.1583 32.4697 5.21228 -4.55979 364.069
lfemur 8.70534 1.60471 5.18531
ltibia 1.60511e-14 0 0
lfoot -30.1199 -11.6007 0
ltoes -33.9698 0 0
rfemur -32.6655 -15.54 -6.25611
rtibia 50.5455 0 0
rfoot -22.6796 4.8048 0
rtoes -42.3606 0 0
lowerback -1.47197 -0.347706 0.661731
upperback -0.689127 -0.466568 -5.8348
thorax 0.0623041 -0.248028 -6.43208
lowerneck -6.8296 1.15993 5.8303
upperneck 1.28639 0.945506 3.35972
head 1.56831 0.584355 0.100492
lclavicle -1.41045e-14 -3.33819e-15 0
lhumerus -58.2718 -45.2414 114.923
lradius 55.0679 0 0
lwrist 24.9698 0 0
lhand 37.2057 24.3485 0
lfingers 7.12502 0 0
lthumb 60.0412 38.0858 0
rclavicle -1.41045e-14 -3.33819e-15 0
rhumerus 3.6886 -24.6783 -0.240904
rradius 27.9335 0 0
rwrist -11.0464 0 0
rhand -31.4015 -44.3002 0
rfingers 7.12502 0 0
rthumb -4.67085 -794.229 0
992
root 1.12744 15.1587 32.4669 5.2052 -4.55487 364.07
lfemur 8.70375 1.59756 5.18218
ltibia 1.6014e-14 0 0
lfoot -30.1204 -11.596 0
ltoes -33.9744 0 0
rfemur -32.6543 -15.5282 -6.2602
rtibia 50.5348 0 0
rfoot -22.6786 4.78193 0
rtoes -42.3777 0 0
lowerback -1.46964 -0.347413 0.663884
upperback -0.686259 -0.466117 -5.8308
thorax 0.0640585 -0.247694 -6.42905
lowerneck -6.83364 1.16042 5.82778
upperneck 1.29569 0.945689 3.35811
head 1.572 0.584735 0.100476
lclavicle -1.46197e-14 -4.00858e-15 0
lhumerus -58.2692 -45.248 114.928
lradius 55.0676 0 0
lwrist 24.968 0 0
lhand 37.201 24.3386 0
lfingers 7.12502 0 0
lthumb 60.0372 38.0801 0
rclavicle -1.46197e-14 -4.00858e-15 0
rhumerus 3.68616 -24.668 -0.255692
rradius 27.9307 0 0
rwrist -11.0367 0 0
rhand -31.3997 -44.2846 0
rfingers 7.12502 0 0
rthumb -4.66908 -794.213 0
993
root 1.12835 15.159 32.4641 5.20243 -4.55692 364.073
lfemur 8.70372 1.59825 5.17755
ltibia 1.62422e-14 0 0
lfoot -30.1206 -11.5958 0
ltoes -33.9755 0 0
rfemur -32.6525 -15.5185 -6.2639
rtibia 50.5297 0 0
rfoot -22.6797 4.76643 0
rtoes -42.3891 0 0
lowerback -1.4682 -0.348301 0.66745
upperback -0.68517 -0.467345 -5.82764
thorax 0.0642619 -0.248277 -6.42775
lowerneck -6.83461 1.1619 5.82396
upperneck 1.30004 0.947805 3.35599
head 1.57357 0.585859 0.100553
lclavicle -1.50597e-14 -4.51617e-15 0
lhumerus -58.2654 -45.2457 114.929
lradius 55.0645 0 0
lwrist 24.9656 0 0
lhand 37.1977 24.3294 0
lfingers 7.12502 0 0
lthumb 60.0344 38.0739 0
rclavicle -1.50597e-14 -4.51617e-15 0
rhumerus 3.68903 -24.6653 -0.267291
rradius 27.9307 0 0
rwrist -11.0344 0 0
rhand -31.4019 -44.2815 0
rfingers 7.12502 0 0
rthumb -4.67129 -794.21 0
